<svg width="227" height="44" viewBox="0 0 227 44" fill="none" xmlns="http://www.w3.org/2000/svg">
<path d="M0.88 38.472C1.25333 38.4613 1.52 38.376 1.68 38.216C1.84 38.056 1.93067 37.8693 1.952 37.656C1.97333 37.432 1.984 37.048 1.984 36.504V29.592C1.984 29.144 2 28.76 2.032 28.44L0.88 28.504V27.8H4.48V28.328C4.10667 28.3387 3.84 28.424 3.68 28.584C3.52 28.744 3.42933 28.936 3.408 29.16C3.38667 29.3733 3.376 29.752 3.376 30.296V37.16C3.376 37.7147 3.36 38.1307 3.328 38.408L6.32 38.36C7.00267 38.3493 7.51467 38.136 7.856 37.72C8.19733 37.2933 8.368 36.616 8.368 35.688H8.912L8.816 39H0.88V38.472ZM11.838 29.256C11.614 29.256 11.4167 29.1653 11.246 28.984C11.0753 28.792 10.99 28.568 10.99 28.312C10.99 28.056 11.0753 27.832 11.246 27.64C11.4273 27.448 11.63 27.352 11.854 27.352C12.0993 27.352 12.302 27.448 12.462 27.64C12.6327 27.8213 12.718 28.0453 12.718 28.312C12.718 28.568 12.6273 28.792 12.446 28.984C12.2753 29.1653 12.0727 29.256 11.838 29.256ZM10.254 38.52C10.5633 38.52 10.782 38.4453 10.91 38.296C11.0487 38.136 11.1287 37.9387 11.15 37.704C11.182 37.4587 11.198 37.08 11.198 36.568V32.92C11.198 32.6107 11.2193 32.264 11.262 31.88L10.126 31.944V31.272C10.7553 31.272 11.2033 31.2347 11.47 31.16C11.7473 31.0853 11.9607 30.9787 12.11 30.84H12.574V37.304C12.574 37.784 12.5527 38.1467 12.51 38.392L13.518 38.344V39H10.254V38.52ZM18.91 43.336C17.9927 43.336 17.2353 43.2347 16.638 43.032C16.0407 42.8293 15.6033 42.5627 15.326 42.232C15.0487 41.9013 14.91 41.5493 14.91 41.176C14.91 40.728 15.0593 40.3333 15.358 39.992C15.6567 39.6613 15.998 39.416 16.382 39.256C16.0193 39.1387 15.742 38.9787 15.55 38.776C15.3687 38.5733 15.278 38.312 15.278 37.992C15.278 37.608 15.4273 37.256 15.726 36.936C16.0353 36.616 16.4193 36.4187 16.878 36.344C16.3767 36.1093 15.982 35.784 15.694 35.368C15.406 34.9413 15.262 34.456 15.262 33.912C15.262 33.2933 15.422 32.744 15.742 32.264C16.0727 31.784 16.494 31.4107 17.006 31.144C17.5287 30.8773 18.0727 30.744 18.638 30.744C19.3633 30.744 20.0407 30.9413 20.67 31.336C20.83 30.8773 21.086 30.504 21.438 30.216C21.8007 29.928 22.19 29.784 22.606 29.784C22.8727 29.784 23.0807 29.8587 23.23 30.008C23.3793 30.1467 23.454 30.3387 23.454 30.584C23.454 30.7333 23.3953 30.8827 23.278 31.032C23.1713 31.1707 23.0113 31.24 22.798 31.24C22.6167 31.24 22.462 31.1867 22.334 31.08C22.206 30.9733 22.126 30.84 22.094 30.68C21.838 30.712 21.6353 30.8293 21.486 31.032C21.3367 31.224 21.23 31.4587 21.166 31.736C21.4327 31.9813 21.6407 32.2693 21.79 32.6C21.9393 32.9307 22.014 33.2773 22.014 33.64C22.014 34.2267 21.8593 34.7547 21.55 35.224C21.2407 35.6933 20.8247 36.0613 20.302 36.328C19.79 36.5947 19.2353 36.728 18.638 36.728C18.4993 36.728 18.3233 36.7173 18.11 36.696C17.95 36.664 17.7687 36.648 17.566 36.648C17.214 36.648 16.9153 36.728 16.67 36.888C16.4353 37.0373 16.318 37.224 16.318 37.448C16.318 37.7573 16.51 37.9653 16.894 38.072C17.2887 38.168 17.9553 38.232 18.894 38.264C20.206 38.328 21.1873 38.5413 21.838 38.904C22.4993 39.256 22.83 39.8427 22.83 40.664C22.83 41.208 22.638 41.6827 22.254 42.088C21.8807 42.4933 21.39 42.8027 20.782 43.016C20.1847 43.2293 19.5607 43.336 18.91 43.336ZM18.686 36.152C19.262 36.152 19.6993 35.9493 19.998 35.544C20.3073 35.1387 20.462 34.6107 20.462 33.96C20.462 33.2133 20.2967 32.584 19.966 32.072C19.646 31.56 19.1927 31.304 18.606 31.304C18.0407 31.304 17.598 31.5173 17.278 31.944C16.958 32.36 16.798 32.8987 16.798 33.56C16.798 34.3387 16.9633 34.968 17.294 35.448C17.6353 35.9173 18.0993 36.152 18.686 36.152ZM18.894 42.712C19.4807 42.712 19.9927 42.632 20.43 42.472C20.878 42.3227 21.2193 42.1147 21.454 41.848C21.6887 41.592 21.806 41.3093 21.806 41C21.806 40.456 21.5447 40.0827 21.022 39.88C20.51 39.6773 19.7473 39.56 18.734 39.528C18.062 39.5067 17.5127 39.464 17.086 39.4C16.798 39.592 16.574 39.8267 16.414 40.104C16.254 40.3813 16.174 40.6747 16.174 40.984C16.174 41.5067 16.4193 41.9227 16.91 42.232C17.4113 42.552 18.0727 42.712 18.894 42.712ZM24.4284 38.52C24.7377 38.52 24.9617 38.4453 25.1004 38.296C25.239 38.136 25.319 37.9333 25.3404 37.688C25.3724 37.4427 25.3884 37.0693 25.3884 36.568V29C25.3884 28.5947 25.4044 28.248 25.4364 27.96L24.3004 28.024V27.352C24.9404 27.352 25.3937 27.3147 25.6604 27.24C25.9377 27.1653 26.151 27.0587 26.3004 26.92H26.7644V31.8C27.1377 31.4907 27.559 31.24 28.0284 31.048C28.4977 30.8453 28.951 30.744 29.3884 30.744C30.3057 30.744 30.9724 31.032 31.3884 31.608C31.8044 32.184 32.0177 33.0907 32.0284 34.328L32.0444 37.304C32.0444 37.784 32.023 38.1467 31.9804 38.392L32.9884 38.344V39H29.7244V38.52C30.0337 38.52 30.2524 38.4453 30.3804 38.296C30.519 38.136 30.599 37.9387 30.6204 37.704C30.6524 37.4587 30.6684 37.08 30.6684 36.568V34.328C30.6684 33.4107 30.5244 32.728 30.2364 32.28C29.9484 31.8213 29.495 31.592 28.8764 31.592C28.4817 31.592 28.087 31.688 27.6924 31.88C27.3084 32.0613 26.999 32.296 26.7644 32.584V37.304C26.7644 37.72 26.7377 38.0827 26.6844 38.392L27.6924 38.344V39H24.4284V38.52ZM37.3339 39.256C35.8725 39.256 35.1472 38.2747 35.1579 36.312L35.1899 31.672L33.9579 31.688V31C34.4699 30.9893 34.9019 30.76 35.2539 30.312C35.6165 29.8533 35.8832 29.336 36.0539 28.76H36.5979V31H39.2859V31.624L36.5979 31.656C36.5872 33.288 36.5765 34.4187 36.5659 35.048C36.5659 35.6773 36.5659 36.0293 36.5659 36.104C36.5659 36.8613 36.6565 37.4267 36.8379 37.8C37.0192 38.1627 37.3339 38.344 37.7819 38.344C38.0592 38.344 38.3312 38.2587 38.5979 38.088C38.8752 37.9173 39.1152 37.6827 39.3179 37.384L39.7499 37.736C39.3339 38.3547 38.9232 38.7653 38.5179 38.968C38.1125 39.16 37.7179 39.256 37.3339 39.256ZM45.4925 38.472C45.8658 38.4613 46.1325 38.376 46.2925 38.216C46.4525 38.056 46.5432 37.8693 46.5645 37.656C46.5858 37.432 46.5965 37.048 46.5965 36.504V29.592C46.5965 29.144 46.6125 28.76 46.6445 28.44L45.4925 28.504V27.8C46.9858 27.7787 48.1752 27.768 49.0605 27.768C50.6498 27.768 51.8498 28.0453 52.6605 28.6C53.4818 29.1547 53.8925 29.9707 53.8925 31.048C53.8925 31.6667 53.7272 32.2587 53.3965 32.824C53.0765 33.3893 52.5165 33.8587 51.7165 34.232C50.9272 34.6053 49.8765 34.792 48.5645 34.792C48.3192 34.792 48.1272 34.7867 47.9885 34.776V37.096C47.9885 37.6613 47.9725 38.0827 47.9405 38.36L49.4125 38.28V39H45.4925V38.472ZM49.0285 34.168C49.6365 34.168 50.1912 34.0507 50.6925 33.816C51.2045 33.5707 51.6045 33.224 51.8925 32.776C52.1912 32.3173 52.3405 31.784 52.3405 31.176C52.3405 30.216 52.0472 29.512 51.4605 29.064C50.8738 28.616 50.0632 28.392 49.0285 28.392C48.6658 28.392 48.4098 28.4667 48.2605 28.616C48.1218 28.7653 48.0418 28.9467 48.0205 29.16C47.9992 29.3627 47.9885 29.7413 47.9885 30.296V34.12C48.2552 34.152 48.6018 34.168 49.0285 34.168ZM57.4502 39.256C56.6716 39.256 56.0742 39.08 55.6582 38.728C55.2529 38.376 55.0502 37.9173 55.0502 37.352C55.0502 36.7333 55.2956 36.2107 55.7862 35.784C56.2876 35.3573 56.9116 35.0427 57.6582 34.84C58.4156 34.6267 59.1729 34.5253 59.9302 34.536V33.544C59.9302 32.8507 59.8289 32.312 59.6262 31.928C59.4236 31.5333 58.9916 31.336 58.3302 31.336C57.9996 31.336 57.6849 31.4053 57.3862 31.544C57.0876 31.6827 56.8689 31.8907 56.7302 32.168C56.8689 32.3173 56.9382 32.52 56.9382 32.776C56.9382 32.936 56.8796 33.0907 56.7622 33.24C56.6449 33.3787 56.4742 33.448 56.2502 33.448C56.0262 33.448 55.8502 33.3787 55.7222 33.24C55.5942 33.0907 55.5302 32.8987 55.5302 32.664C55.5302 32.312 55.6636 31.992 55.9302 31.704C56.2076 31.4053 56.5862 31.1707 57.0662 31C57.5569 30.8293 58.1009 30.744 58.6982 30.744C59.5942 30.744 60.2556 30.984 60.6822 31.464C61.1089 31.9333 61.3169 32.68 61.3062 33.704L61.2902 37.304C61.2902 37.6453 61.2689 38.008 61.2262 38.392L62.3622 38.328V39H60.0742C60.0422 38.84 60.0049 38.536 59.9622 38.088C59.1836 38.8667 58.3462 39.256 57.4502 39.256ZM57.8182 38.344C58.2236 38.344 58.5916 38.2693 58.9222 38.12C59.2529 37.96 59.5889 37.72 59.9302 37.4C59.9196 37.24 59.9142 36.968 59.9142 36.584L59.9302 35.08C59.0556 35.112 58.2769 35.2933 57.5942 35.624C56.9116 35.944 56.5702 36.44 56.5702 37.112C56.5702 37.5067 56.6876 37.8107 56.9222 38.024C57.1569 38.2373 57.4556 38.344 57.8182 38.344ZM65.3443 29.256C65.1203 29.256 64.9229 29.1653 64.7523 28.984C64.5816 28.792 64.4963 28.568 64.4963 28.312C64.4963 28.056 64.5816 27.832 64.7523 27.64C64.9336 27.448 65.1363 27.352 65.3603 27.352C65.6056 27.352 65.8083 27.448 65.9683 27.64C66.1389 27.8213 66.2243 28.0453 66.2243 28.312C66.2243 28.568 66.1336 28.792 65.9523 28.984C65.7816 29.1653 65.5789 29.256 65.3443 29.256ZM63.7603 38.52C64.0696 38.52 64.2883 38.4453 64.4163 38.296C64.5549 38.136 64.6349 37.9387 64.6563 37.704C64.6883 37.4587 64.7043 37.08 64.7043 36.568V32.92C64.7043 32.6107 64.7256 32.264 64.7683 31.88L63.6323 31.944V31.272C64.2616 31.272 64.7096 31.2347 64.9763 31.16C65.2536 31.0853 65.4669 30.9787 65.6163 30.84H66.0803V37.304C66.0803 37.784 66.0589 38.1467 66.0163 38.392L67.0243 38.344V39H63.7603V38.52ZM68.5602 38.52C68.8696 38.52 69.0882 38.4453 69.2162 38.296C69.3549 38.136 69.4349 37.944 69.4562 37.72C69.4776 37.4853 69.4936 37.1013 69.5042 36.568L69.5202 32.92C69.5202 32.472 69.5416 32.1253 69.5842 31.88L68.4482 31.944V31.272C69.0776 31.272 69.5096 31.24 69.7442 31.176C69.9789 31.1013 70.1762 30.9893 70.3362 30.84H70.8002C70.8216 31.0427 70.8429 31.368 70.8642 31.816C71.2269 31.496 71.6376 31.24 72.0962 31.048C72.5656 30.8453 73.0242 30.744 73.4722 30.744C74.4002 30.744 75.0776 31.0373 75.5042 31.624C75.9309 32.2 76.1442 33.1013 76.1442 34.328V37.304C76.1442 37.784 76.1229 38.1467 76.0802 38.392L77.0882 38.344V39H73.8242V38.52C74.1336 38.52 74.3522 38.4453 74.4802 38.296C74.6189 38.136 74.6989 37.9387 74.7202 37.704C74.7522 37.4587 74.7682 37.08 74.7682 36.568V34.328C74.7576 33.4107 74.6082 32.7227 74.3202 32.264C74.0322 31.7947 73.5789 31.56 72.9602 31.56C72.5762 31.56 72.1922 31.656 71.8082 31.848C71.4349 32.04 71.1256 32.2907 70.8802 32.6C70.8909 32.7173 70.8962 32.9253 70.8962 33.224L70.8802 37.304C70.8802 37.784 70.8589 38.1467 70.8162 38.392L71.8242 38.344V39H68.5602V38.52ZM81.4464 39.256C79.985 39.256 79.2597 38.2747 79.2704 36.312L79.3024 31.672L78.0704 31.688V31C78.5824 30.9893 79.0144 30.76 79.3664 30.312C79.729 29.8533 79.9957 29.336 80.1664 28.76H80.7104V31H83.3984V31.624L80.7104 31.656C80.6997 33.288 80.689 34.4187 80.6784 35.048C80.6784 35.6773 80.6784 36.0293 80.6784 36.104C80.6784 36.8613 80.769 37.4267 80.9504 37.8C81.1317 38.1627 81.4464 38.344 81.8944 38.344C82.1717 38.344 82.4437 38.2587 82.7104 38.088C82.9877 37.9173 83.2277 37.6827 83.4304 37.384L83.8624 37.736C83.4464 38.3547 83.0357 38.7653 82.6304 38.968C82.225 39.16 81.8304 39.256 81.4464 39.256ZM86.5099 29.256C86.2859 29.256 86.0885 29.1653 85.9179 28.984C85.7472 28.792 85.6619 28.568 85.6619 28.312C85.6619 28.056 85.7472 27.832 85.9179 27.64C86.0992 27.448 86.3019 27.352 86.5259 27.352C86.7712 27.352 86.9739 27.448 87.1339 27.64C87.3045 27.8213 87.3899 28.0453 87.3899 28.312C87.3899 28.568 87.2992 28.792 87.1179 28.984C86.9472 29.1653 86.7445 29.256 86.5099 29.256ZM84.9259 38.52C85.2352 38.52 85.4539 38.4453 85.5819 38.296C85.7205 38.136 85.8005 37.9387 85.8219 37.704C85.8539 37.4587 85.8699 37.08 85.8699 36.568V32.92C85.8699 32.6107 85.8912 32.264 85.9339 31.88L84.7979 31.944V31.272C85.4272 31.272 85.8752 31.2347 86.1419 31.16C86.4192 31.0853 86.6325 30.9787 86.7819 30.84H87.2459V37.304C87.2459 37.784 87.2245 38.1467 87.1819 38.392L88.1899 38.344V39H84.9259V38.52ZM89.7259 38.52C90.0352 38.52 90.2539 38.4453 90.3819 38.296C90.5205 38.136 90.6005 37.944 90.6219 37.72C90.6432 37.4853 90.6592 37.1013 90.6699 36.568L90.6859 32.92C90.6859 32.472 90.7072 32.1253 90.7499 31.88L89.6139 31.944V31.272C90.2432 31.272 90.6752 31.24 90.9099 31.176C91.1445 31.1013 91.3419 30.9893 91.5019 30.84H91.9659C91.9872 31.0427 92.0085 31.368 92.0299 31.816C92.3925 31.496 92.8032 31.24 93.2619 31.048C93.7312 30.8453 94.1899 30.744 94.6379 30.744C95.5659 30.744 96.2432 31.0373 96.6699 31.624C97.0965 32.2 97.3099 33.1013 97.3099 34.328V37.304C97.3099 37.784 97.2885 38.1467 97.2459 38.392L98.2539 38.344V39H94.9899V38.52C95.2992 38.52 95.5179 38.4453 95.6459 38.296C95.7845 38.136 95.8645 37.9387 95.8859 37.704C95.9179 37.4587 95.9339 37.08 95.9339 36.568V34.328C95.9232 33.4107 95.7739 32.7227 95.4859 32.264C95.1979 31.7947 94.7445 31.56 94.1259 31.56C93.7419 31.56 93.3579 31.656 92.9739 31.848C92.6005 32.04 92.2912 32.2907 92.0459 32.6C92.0565 32.7173 92.0619 32.9253 92.0619 33.224L92.0459 37.304C92.0459 37.784 92.0245 38.1467 91.9819 38.392L92.9899 38.344V39H89.7259V38.52ZM103.601 43.336C102.683 43.336 101.926 43.2347 101.329 43.032C100.731 42.8293 100.294 42.5627 100.017 42.232C99.7393 41.9013 99.6006 41.5493 99.6006 41.176C99.6006 40.728 99.75 40.3333 100.049 39.992C100.347 39.6613 100.689 39.416 101.073 39.256C100.71 39.1387 100.433 38.9787 100.241 38.776C100.059 38.5733 99.9686 38.312 99.9686 37.992C99.9686 37.608 100.118 37.256 100.417 36.936C100.726 36.616 101.11 36.4187 101.569 36.344C101.067 36.1093 100.673 35.784 100.385 35.368C100.097 34.9413 99.9526 34.456 99.9526 33.912C99.9526 33.2933 100.113 32.744 100.433 32.264C100.763 31.784 101.185 31.4107 101.697 31.144C102.219 30.8773 102.763 30.744 103.329 30.744C104.054 30.744 104.731 30.9413 105.361 31.336C105.521 30.8773 105.777 30.504 106.129 30.216C106.491 29.928 106.881 29.784 107.297 29.784C107.563 29.784 107.771 29.8587 107.921 30.008C108.07 30.1467 108.145 30.3387 108.145 30.584C108.145 30.7333 108.086 30.8827 107.969 31.032C107.862 31.1707 107.702 31.24 107.489 31.24C107.307 31.24 107.153 31.1867 107.025 31.08C106.897 30.9733 106.817 30.84 106.785 30.68C106.529 30.712 106.326 30.8293 106.177 31.032C106.027 31.224 105.921 31.4587 105.857 31.736C106.123 31.9813 106.331 32.2693 106.481 32.6C106.63 32.9307 106.705 33.2773 106.705 33.64C106.705 34.2267 106.55 34.7547 106.241 35.224C105.931 35.6933 105.515 36.0613 104.993 36.328C104.481 36.5947 103.926 36.728 103.329 36.728C103.19 36.728 103.014 36.7173 102.801 36.696C102.641 36.664 102.459 36.648 102.257 36.648C101.905 36.648 101.606 36.728 101.361 36.888C101.126 37.0373 101.009 37.224 101.009 37.448C101.009 37.7573 101.201 37.9653 101.585 38.072C101.979 38.168 102.646 38.232 103.585 38.264C104.897 38.328 105.878 38.5413 106.529 38.904C107.19 39.256 107.521 39.8427 107.521 40.664C107.521 41.208 107.329 41.6827 106.945 42.088C106.571 42.4933 106.081 42.8027 105.473 43.016C104.875 43.2293 104.251 43.336 103.601 43.336ZM103.377 36.152C103.953 36.152 104.39 35.9493 104.689 35.544C104.998 35.1387 105.153 34.6107 105.153 33.96C105.153 33.2133 104.987 32.584 104.657 32.072C104.337 31.56 103.883 31.304 103.297 31.304C102.731 31.304 102.289 31.5173 101.969 31.944C101.649 32.36 101.489 32.8987 101.489 33.56C101.489 34.3387 101.654 34.968 101.985 35.448C102.326 35.9173 102.79 36.152 103.377 36.152ZM103.585 42.712C104.171 42.712 104.683 42.632 105.121 42.472C105.569 42.3227 105.91 42.1147 106.145 41.848C106.379 41.592 106.497 41.3093 106.497 41C106.497 40.456 106.235 40.0827 105.713 39.88C105.201 39.6773 104.438 39.56 103.425 39.528C102.753 39.5067 102.203 39.464 101.777 39.4C101.489 39.592 101.265 39.8267 101.105 40.104C100.945 40.3813 100.865 40.6747 100.865 40.984C100.865 41.5067 101.11 41.9227 101.601 42.232C102.102 42.552 102.763 42.712 103.585 42.712ZM113.568 38.472C113.941 38.4613 114.208 38.376 114.368 38.216C114.528 38.056 114.618 37.8693 114.64 37.656C114.661 37.432 114.672 37.048 114.672 36.504V29.592C114.672 29.144 114.688 28.76 114.72 28.44L113.568 28.504V27.8C115.061 27.7787 116.25 27.768 117.136 27.768C118.725 27.768 119.925 28.0453 120.736 28.6C121.557 29.1547 121.968 29.9707 121.968 31.048C121.968 31.6667 121.802 32.2587 121.472 32.824C121.152 33.3893 120.592 33.8587 119.792 34.232C119.002 34.6053 117.952 34.792 116.64 34.792C116.394 34.792 116.202 34.7867 116.064 34.776V37.096C116.064 37.6613 116.048 38.0827 116.016 38.36L117.488 38.28V39H113.568V38.472ZM117.104 34.168C117.712 34.168 118.266 34.0507 118.768 33.816C119.28 33.5707 119.68 33.224 119.968 32.776C120.266 32.3173 120.416 31.784 120.416 31.176C120.416 30.216 120.122 29.512 119.536 29.064C118.949 28.616 118.138 28.392 117.104 28.392C116.741 28.392 116.485 28.4667 116.336 28.616C116.197 28.7653 116.117 28.9467 116.096 29.16C116.074 29.3627 116.064 29.7413 116.064 30.296V34.12C116.33 34.152 116.677 34.168 117.104 34.168ZM123.141 38.52C123.45 38.52 123.674 38.4453 123.813 38.296C123.952 38.136 124.032 37.9333 124.053 37.688C124.085 37.4427 124.101 37.0693 124.101 36.568V29C124.101 28.5947 124.117 28.248 124.149 27.96L123.013 28.024V27.352C123.653 27.352 124.106 27.3147 124.373 27.24C124.65 27.1653 124.864 27.0587 125.013 26.92H125.477V31.8C125.85 31.4907 126.272 31.24 126.741 31.048C127.21 30.8453 127.664 30.744 128.101 30.744C129.018 30.744 129.685 31.032 130.101 31.608C130.517 32.184 130.73 33.0907 130.741 34.328L130.757 37.304C130.757 37.784 130.736 38.1467 130.693 38.392L131.701 38.344V39H128.437V38.52C128.746 38.52 128.965 38.4453 129.093 38.296C129.232 38.136 129.312 37.9387 129.333 37.704C129.365 37.4587 129.381 37.08 129.381 36.568V34.328C129.381 33.4107 129.237 32.728 128.949 32.28C128.661 31.8213 128.208 31.592 127.589 31.592C127.194 31.592 126.8 31.688 126.405 31.88C126.021 32.0613 125.712 32.296 125.477 32.584V37.304C125.477 37.72 125.45 38.0827 125.397 38.392L126.405 38.344V39H123.141V38.52ZM137.147 39.256C136.411 39.256 135.734 39.0853 135.115 38.744C134.507 38.392 134.022 37.9067 133.659 37.288C133.307 36.6693 133.131 35.9707 133.131 35.192C133.131 34.36 133.307 33.608 133.659 32.936C134.011 32.2533 134.491 31.72 135.099 31.336C135.718 30.9413 136.4 30.744 137.147 30.744C137.883 30.744 138.56 30.9253 139.179 31.288C139.798 31.64 140.283 32.1253 140.635 32.744C140.998 33.3627 141.179 34.0507 141.179 34.808C141.179 35.6187 140.998 36.3653 140.635 37.048C140.283 37.7307 139.798 38.2693 139.179 38.664C138.571 39.0587 137.894 39.256 137.147 39.256ZM137.275 38.616C138.054 38.616 138.624 38.296 138.987 37.656C139.36 37.016 139.547 36.2213 139.547 35.272C139.547 34.1947 139.344 33.272 138.939 32.504C138.544 31.736 137.947 31.352 137.147 31.352C136.358 31.352 135.76 31.6773 135.355 32.328C134.96 32.9787 134.763 33.7787 134.763 34.728C134.763 35.4107 134.854 36.0507 135.035 36.648C135.227 37.2347 135.51 37.7093 135.883 38.072C136.267 38.4347 136.731 38.616 137.275 38.616ZM145.846 39.256C144.385 39.256 143.66 38.2747 143.67 36.312L143.702 31.672L142.47 31.688V31C142.982 30.9893 143.414 30.76 143.766 30.312C144.129 29.8533 144.396 29.336 144.566 28.76H145.11V31H147.798V31.624L145.11 31.656C145.1 33.288 145.089 34.4187 145.078 35.048C145.078 35.6773 145.078 36.0293 145.078 36.104C145.078 36.8613 145.169 37.4267 145.35 37.8C145.532 38.1627 145.846 38.344 146.294 38.344C146.572 38.344 146.844 38.2587 147.11 38.088C147.388 37.9173 147.628 37.6827 147.83 37.384L148.262 37.736C147.846 38.3547 147.436 38.7653 147.03 38.968C146.625 39.16 146.23 39.256 145.846 39.256ZM153.294 39.256C152.558 39.256 151.881 39.0853 151.262 38.744C150.654 38.392 150.169 37.9067 149.806 37.288C149.454 36.6693 149.278 35.9707 149.278 35.192C149.278 34.36 149.454 33.608 149.806 32.936C150.158 32.2533 150.638 31.72 151.246 31.336C151.865 30.9413 152.547 30.744 153.294 30.744C154.03 30.744 154.707 30.9253 155.326 31.288C155.945 31.64 156.43 32.1253 156.782 32.744C157.145 33.3627 157.326 34.0507 157.326 34.808C157.326 35.6187 157.145 36.3653 156.782 37.048C156.43 37.7307 155.945 38.2693 155.326 38.664C154.718 39.0587 154.041 39.256 153.294 39.256ZM153.422 38.616C154.201 38.616 154.771 38.296 155.134 37.656C155.507 37.016 155.694 36.2213 155.694 35.272C155.694 34.1947 155.491 33.272 155.086 32.504C154.691 31.736 154.094 31.352 153.294 31.352C152.505 31.352 151.907 31.6773 151.502 32.328C151.107 32.9787 150.91 33.7787 150.91 34.728C150.91 35.4107 151.001 36.0507 151.182 36.648C151.374 37.2347 151.657 37.7093 152.03 38.072C152.414 38.4347 152.878 38.616 153.422 38.616ZM162.841 43.336C161.924 43.336 161.167 43.2347 160.569 43.032C159.972 42.8293 159.535 42.5627 159.257 42.232C158.98 41.9013 158.841 41.5493 158.841 41.176C158.841 40.728 158.991 40.3333 159.289 39.992C159.588 39.6613 159.929 39.416 160.313 39.256C159.951 39.1387 159.673 38.9787 159.481 38.776C159.3 38.5733 159.209 38.312 159.209 37.992C159.209 37.608 159.359 37.256 159.657 36.936C159.967 36.616 160.351 36.4187 160.809 36.344C160.308 36.1093 159.913 35.784 159.625 35.368C159.337 34.9413 159.193 34.456 159.193 33.912C159.193 33.2933 159.353 32.744 159.673 32.264C160.004 31.784 160.425 31.4107 160.937 31.144C161.46 30.8773 162.004 30.744 162.569 30.744C163.295 30.744 163.972 30.9413 164.601 31.336C164.761 30.8773 165.017 30.504 165.369 30.216C165.732 29.928 166.121 29.784 166.537 29.784C166.804 29.784 167.012 29.8587 167.161 30.008C167.311 30.1467 167.385 30.3387 167.385 30.584C167.385 30.7333 167.327 30.8827 167.209 31.032C167.103 31.1707 166.943 31.24 166.729 31.24C166.548 31.24 166.393 31.1867 166.265 31.08C166.137 30.9733 166.057 30.84 166.025 30.68C165.769 30.712 165.567 30.8293 165.417 31.032C165.268 31.224 165.161 31.4587 165.097 31.736C165.364 31.9813 165.572 32.2693 165.721 32.6C165.871 32.9307 165.945 33.2773 165.945 33.64C165.945 34.2267 165.791 34.7547 165.481 35.224C165.172 35.6933 164.756 36.0613 164.233 36.328C163.721 36.5947 163.167 36.728 162.569 36.728C162.431 36.728 162.255 36.7173 162.041 36.696C161.881 36.664 161.7 36.648 161.497 36.648C161.145 36.648 160.847 36.728 160.601 36.888C160.367 37.0373 160.249 37.224 160.249 37.448C160.249 37.7573 160.441 37.9653 160.825 38.072C161.22 38.168 161.887 38.232 162.825 38.264C164.137 38.328 165.119 38.5413 165.769 38.904C166.431 39.256 166.761 39.8427 166.761 40.664C166.761 41.208 166.569 41.6827 166.185 42.088C165.812 42.4933 165.321 42.8027 164.713 43.016C164.116 43.2293 163.492 43.336 162.841 43.336ZM162.617 36.152C163.193 36.152 163.631 35.9493 163.929 35.544C164.239 35.1387 164.393 34.6107 164.393 33.96C164.393 33.2133 164.228 32.584 163.897 32.072C163.577 31.56 163.124 31.304 162.537 31.304C161.972 31.304 161.529 31.5173 161.209 31.944C160.889 32.36 160.729 32.8987 160.729 33.56C160.729 34.3387 160.895 34.968 161.225 35.448C161.567 35.9173 162.031 36.152 162.617 36.152ZM162.825 42.712C163.412 42.712 163.924 42.632 164.361 42.472C164.809 42.3227 165.151 42.1147 165.385 41.848C165.62 41.592 165.737 41.3093 165.737 41C165.737 40.456 165.476 40.0827 164.953 39.88C164.441 39.6773 163.679 39.56 162.665 39.528C161.993 39.5067 161.444 39.464 161.017 39.4C160.729 39.592 160.505 39.8267 160.345 40.104C160.185 40.3813 160.105 40.6747 160.105 40.984C160.105 41.5067 160.351 41.9227 160.841 42.232C161.343 42.552 162.004 42.712 162.825 42.712ZM168.129 38.52C168.438 38.52 168.657 38.4453 168.785 38.296C168.924 38.136 169.004 37.9387 169.025 37.704C169.057 37.4587 169.073 37.08 169.073 36.568V32.92C169.073 32.472 169.094 32.1253 169.137 31.88L168.001 31.928V31.272H168.497C168.902 31.272 169.196 31.24 169.377 31.176C169.558 31.1013 169.729 30.9893 169.889 30.84H170.353C170.396 31.256 170.422 31.784 170.433 32.424C170.7 31.9867 171.078 31.5973 171.569 31.256C172.07 30.9147 172.588 30.744 173.121 30.744C173.441 30.744 173.708 30.8293 173.921 31C174.134 31.1707 174.241 31.4213 174.241 31.752C174.241 31.9227 174.172 32.0933 174.033 32.264C173.905 32.4347 173.718 32.52 173.473 32.52C173.238 32.52 173.046 32.4347 172.897 32.264C172.748 32.0827 172.689 31.8693 172.721 31.624C172.316 31.6133 171.905 31.768 171.489 32.088C171.084 32.408 170.737 32.8347 170.449 33.368L170.465 37.304C170.465 37.784 170.444 38.1467 170.401 38.392L171.409 38.344V39H168.129V38.52ZM177.482 39.256C176.703 39.256 176.106 39.08 175.69 38.728C175.284 38.376 175.082 37.9173 175.082 37.352C175.082 36.7333 175.327 36.2107 175.818 35.784C176.319 35.3573 176.943 35.0427 177.69 34.84C178.447 34.6267 179.204 34.5253 179.962 34.536V33.544C179.962 32.8507 179.86 32.312 179.658 31.928C179.455 31.5333 179.023 31.336 178.362 31.336C178.031 31.336 177.716 31.4053 177.418 31.544C177.119 31.6827 176.9 31.8907 176.762 32.168C176.9 32.3173 176.97 32.52 176.97 32.776C176.97 32.936 176.911 33.0907 176.794 33.24C176.676 33.3787 176.506 33.448 176.282 33.448C176.058 33.448 175.882 33.3787 175.754 33.24C175.626 33.0907 175.562 32.8987 175.562 32.664C175.562 32.312 175.695 31.992 175.962 31.704C176.239 31.4053 176.618 31.1707 177.098 31C177.588 30.8293 178.132 30.744 178.73 30.744C179.626 30.744 180.287 30.984 180.714 31.464C181.14 31.9333 181.348 32.68 181.338 33.704L181.322 37.304C181.322 37.6453 181.3 38.008 181.258 38.392L182.394 38.328V39H180.106C180.074 38.84 180.036 38.536 179.994 38.088C179.215 38.8667 178.378 39.256 177.482 39.256ZM177.85 38.344C178.255 38.344 178.623 38.2693 178.954 38.12C179.284 37.96 179.62 37.72 179.962 37.4C179.951 37.24 179.946 36.968 179.946 36.584L179.962 35.08C179.087 35.112 178.308 35.2933 177.626 35.624C176.943 35.944 176.602 36.44 176.602 37.112C176.602 37.5067 176.719 37.8107 176.954 38.024C177.188 38.2373 177.487 38.344 177.85 38.344ZM183.647 42.6C183.957 42.6 184.175 42.52 184.303 42.36C184.442 42.2107 184.522 42.0187 184.543 41.784C184.565 41.56 184.581 41.1813 184.591 40.648L184.623 32.92C184.623 32.472 184.645 32.1253 184.687 31.88L183.551 31.944V31.272C184.181 31.272 184.613 31.24 184.847 31.176C185.082 31.1013 185.274 30.9893 185.423 30.84H185.903C185.946 31.3627 185.967 31.6507 185.967 31.704C186.287 31.416 186.671 31.1867 187.119 31.016C187.567 30.8347 188.01 30.744 188.447 30.744C189.077 30.744 189.658 30.9093 190.191 31.24C190.725 31.56 191.151 32.024 191.471 32.632C191.802 33.2293 191.967 33.9227 191.967 34.712C191.967 35.5973 191.781 36.3867 191.407 37.08C191.034 37.7627 190.533 38.296 189.903 38.68C189.285 39.064 188.613 39.256 187.887 39.256C187.151 39.256 186.511 39.08 185.967 38.728V41.384C185.967 41.864 185.946 42.2267 185.903 42.472L186.911 42.424V43.08H183.647V42.6ZM187.855 38.616C188.357 38.616 188.789 38.4613 189.151 38.152C189.525 37.8427 189.813 37.4107 190.015 36.856C190.218 36.3013 190.319 35.672 190.319 34.968C190.319 34.008 190.111 33.1973 189.695 32.536C189.29 31.864 188.682 31.528 187.871 31.528C187.519 31.528 187.178 31.6133 186.847 31.784C186.517 31.9547 186.229 32.168 185.983 32.424C185.994 32.4987 185.999 32.824 185.999 33.4L185.983 37.992C186.527 38.408 187.151 38.616 187.855 38.616ZM193.478 38.52C193.788 38.52 194.012 38.4453 194.15 38.296C194.289 38.136 194.369 37.9333 194.39 37.688C194.422 37.4427 194.438 37.0693 194.438 36.568V29C194.438 28.5947 194.454 28.248 194.486 27.96L193.35 28.024V27.352C193.99 27.352 194.444 27.3147 194.71 27.24C194.988 27.1653 195.201 27.0587 195.35 26.92H195.814V31.8C196.188 31.4907 196.609 31.24 197.078 31.048C197.548 30.8453 198.001 30.744 198.438 30.744C199.356 30.744 200.022 31.032 200.438 31.608C200.854 32.184 201.068 33.0907 201.078 34.328L201.094 37.304C201.094 37.784 201.073 38.1467 201.03 38.392L202.038 38.344V39H198.774V38.52C199.084 38.52 199.302 38.4453 199.43 38.296C199.569 38.136 199.649 37.9387 199.67 37.704C199.702 37.4587 199.718 37.08 199.718 36.568V34.328C199.718 33.4107 199.574 32.728 199.286 32.28C198.998 31.8213 198.545 31.592 197.926 31.592C197.532 31.592 197.137 31.688 196.742 31.88C196.358 32.0613 196.049 32.296 195.814 32.584V37.304C195.814 37.72 195.788 38.0827 195.734 38.392L196.742 38.344V39H193.478V38.52ZM204.639 43.336C204.287 43.336 203.999 43.2507 203.775 43.08C203.551 42.9093 203.439 42.6693 203.439 42.36C203.439 42.1573 203.503 41.976 203.631 41.816C203.77 41.6667 203.946 41.592 204.159 41.592C204.372 41.592 204.527 41.6667 204.623 41.816C204.73 41.9653 204.783 42.12 204.783 42.28C204.783 42.376 204.778 42.4507 204.767 42.504C204.799 42.5253 204.858 42.536 204.943 42.536C205.082 42.536 205.22 42.4827 205.359 42.376C205.508 42.2693 205.642 42.1147 205.759 41.912C206.004 41.5067 206.378 40.5947 206.879 39.176L204.383 33.832C203.935 32.872 203.652 32.136 203.535 31.624L202.767 31.656V31H206.079V31.48H206.015C205.514 31.512 205.263 31.7253 205.263 32.12C205.263 32.3867 205.391 32.8027 205.647 33.368L207.519 37.384C207.839 36.4773 208.298 35.1387 208.895 33.368C209.258 32.312 209.519 31.72 209.679 31.592L208.575 31.656V31H211.087V31.48C210.724 31.6187 210.442 31.8427 210.239 32.152C210.047 32.4507 209.834 32.92 209.599 33.56L207.599 39.144C207.215 40.2213 206.895 41.032 206.639 41.576C206.394 42.1307 206.111 42.5627 205.791 42.872C205.482 43.1813 205.098 43.336 204.639 43.336Z" fill="#CDCDCD"/>
<path d="M8.72 14C8.83333 14.2133 8.93667 14.4367 9.03 14.67C9.13 14.8967 9.22667 15.1267 9.32 15.36C9.41333 15.12 9.51 14.8833 9.61 14.65C9.71 14.4167 9.81667 14.1933 9.93 13.98L14.21 5.97C14.2633 5.87 14.3167 5.79 14.37 5.73C14.43 5.67 14.4933 5.62667 14.56 5.6C14.6333 5.57333 14.7133 5.55667 14.8 5.55C14.8867 5.54333 14.99 5.54 15.11 5.54H17.14V20H14.77V10.66C14.77 10.4867 14.7733 10.2967 14.78 10.09C14.7933 9.88333 14.81 9.67333 14.83 9.46L10.46 17.66C10.36 17.8467 10.23 17.9933 10.07 18.1C9.91 18.2 9.72333 18.25 9.51 18.25H9.14C8.92667 18.25 8.74 18.2 8.58 18.1C8.42 17.9933 8.29 17.8467 8.19 17.66L3.76 9.43C3.78667 9.65 3.80333 9.86667 3.81 10.08C3.82333 10.2867 3.83 10.48 3.83 10.66V20H1.46V5.54H3.49C3.61 5.54 3.71333 5.54333 3.8 5.55C3.88667 5.55667 3.96333 5.57333 4.03 5.6C4.10333 5.62667 4.17 5.67 4.23 5.73C4.29 5.79 4.34667 5.87 4.4 5.97L8.72 14ZM37.3638 20H35.2838C35.0504 20 34.8571 19.9433 34.7038 19.83C34.5571 19.71 34.4504 19.5633 34.3838 19.39L33.3038 16.44H27.3138L26.2338 19.39C26.1804 19.5433 26.0738 19.6833 25.9138 19.81C25.7604 19.9367 25.5704 20 25.3438 20H23.2538L28.9338 5.54H31.6838L37.3638 20ZM28.0038 14.54H32.6138L30.8538 9.73C30.7738 9.51667 30.6838 9.26667 30.5838 8.98C30.4904 8.68667 30.3971 8.37 30.3038 8.03C30.2104 8.37 30.1171 8.68667 30.0238 8.98C29.9371 9.27333 29.8504 9.53 29.7638 9.75L28.0038 14.54ZM46.233 14.35V20H43.543V5.54H47.953C48.9396 5.54 49.783 5.64333 50.483 5.85C51.1896 6.05 51.7663 6.33333 52.213 6.7C52.6663 7.06667 52.9963 7.50667 53.203 8.02C53.4163 8.52667 53.523 9.08667 53.523 9.7C53.523 10.1867 53.4496 10.6467 53.303 11.08C53.163 11.5133 52.9563 11.9067 52.683 12.26C52.4163 12.6133 52.083 12.9233 51.683 13.19C51.2896 13.4567 50.8396 13.67 50.333 13.83C50.673 14.0233 50.9663 14.3 51.213 14.66L54.833 20H52.413C52.1796 20 51.9796 19.9533 51.813 19.86C51.653 19.7667 51.5163 19.6333 51.403 19.46L48.363 14.83C48.2496 14.6567 48.123 14.5333 47.983 14.46C47.8496 14.3867 47.6496 14.35 47.383 14.35H46.233ZM46.233 12.42H47.913C48.4196 12.42 48.8596 12.3567 49.233 12.23C49.613 12.1033 49.923 11.93 50.163 11.71C50.4096 11.4833 50.593 11.2167 50.713 10.91C50.833 10.6033 50.893 10.2667 50.893 9.9C50.893 9.16667 50.6496 8.60333 50.163 8.21C49.683 7.81667 48.9463 7.62 47.953 7.62H46.233V12.42ZM64.1884 20H61.4884V5.54H64.1884V20ZM84.7575 20H82.6775C82.4442 20 82.2508 19.9433 82.0975 19.83C81.9508 19.71 81.8442 19.5633 81.7775 19.39L80.6975 16.44H74.7075L73.6275 19.39C73.5742 19.5433 73.4675 19.6833 73.3075 19.81C73.1542 19.9367 72.9642 20 72.7375 20H70.6475L76.3275 5.54H79.0775L84.7575 20ZM75.3975 14.54H80.0075L78.2475 9.73C78.1675 9.51667 78.0775 9.26667 77.9775 8.98C77.8842 8.68667 77.7908 8.37 77.6975 8.03C77.6042 8.37 77.5108 8.68667 77.4175 8.98C77.3308 9.27333 77.2442 9.53 77.1575 9.75L75.3975 14.54ZM107.064 8.17C106.991 8.31667 106.904 8.42 106.804 8.48C106.711 8.54 106.597 8.57 106.464 8.57C106.331 8.57 106.181 8.52 106.014 8.42C105.847 8.31333 105.651 8.19667 105.424 8.07C105.197 7.94333 104.931 7.83 104.624 7.73C104.324 7.62333 103.967 7.57 103.554 7.57C103.181 7.57 102.854 7.61667 102.574 7.71C102.301 7.79667 102.067 7.92 101.874 8.08C101.687 8.24 101.547 8.43333 101.454 8.66C101.361 8.88 101.314 9.12333 101.314 9.39C101.314 9.73 101.407 10.0133 101.594 10.24C101.787 10.4667 102.041 10.66 102.354 10.82C102.667 10.98 103.024 11.1233 103.424 11.25C103.824 11.3767 104.231 11.5133 104.644 11.66C105.064 11.8 105.474 11.9667 105.874 12.16C106.274 12.3467 106.631 12.5867 106.944 12.88C107.257 13.1667 107.507 13.52 107.694 13.94C107.887 14.36 107.984 14.87 107.984 15.47C107.984 16.1233 107.871 16.7367 107.644 17.31C107.424 17.8767 107.097 18.3733 106.664 18.8C106.237 19.22 105.714 19.5533 105.094 19.8C104.474 20.04 103.764 20.16 102.964 20.16C102.504 20.16 102.051 20.1133 101.604 20.02C101.157 19.9333 100.727 19.8067 100.314 19.64C99.9072 19.4733 99.5239 19.2733 99.1639 19.04C98.8106 18.8067 98.4939 18.5467 98.2139 18.26L98.9939 16.97C99.0672 16.8767 99.1539 16.8 99.2539 16.74C99.3606 16.6733 99.4772 16.64 99.6039 16.64C99.7706 16.64 99.9506 16.71 100.144 16.85C100.337 16.9833 100.564 17.1333 100.824 17.3C101.091 17.4667 101.401 17.62 101.754 17.76C102.114 17.8933 102.544 17.96 103.044 17.96C103.811 17.96 104.404 17.78 104.824 17.42C105.244 17.0533 105.454 16.53 105.454 15.85C105.454 15.47 105.357 15.16 105.164 14.92C104.977 14.68 104.727 14.48 104.414 14.32C104.101 14.1533 103.744 14.0133 103.344 13.9C102.944 13.7867 102.537 13.6633 102.124 13.53C101.711 13.3967 101.304 13.2367 100.904 13.05C100.504 12.8633 100.147 12.62 99.8339 12.32C99.5206 12.02 99.2672 11.6467 99.0739 11.2C98.8872 10.7467 98.7939 10.19 98.7939 9.53C98.7939 9.00333 98.8972 8.49 99.1039 7.99C99.3172 7.49 99.6239 7.04667 100.024 6.66C100.431 6.27333 100.927 5.96333 101.514 5.73C102.101 5.49667 102.771 5.38 103.524 5.38C104.377 5.38 105.164 5.51333 105.884 5.78C106.604 6.04667 107.217 6.42 107.724 6.9L107.064 8.17ZM127.347 20H125.267C125.033 20 124.84 19.9433 124.687 19.83C124.54 19.71 124.433 19.5633 124.367 19.39L123.287 16.44H117.297L116.217 19.39C116.163 19.5433 116.057 19.6833 115.897 19.81C115.743 19.9367 115.553 20 115.327 20H113.237L118.917 5.54H121.667L127.347 20ZM117.987 14.54H122.597L120.837 9.73C120.757 9.51667 120.667 9.26667 120.567 8.98C120.473 8.68667 120.38 8.37 120.287 8.03C120.193 8.37 120.1 8.68667 120.007 8.98C119.92 9.27333 119.833 9.53 119.747 9.75L117.987 14.54ZM139.568 18.02C140.175 18.02 140.701 17.9667 141.148 17.86C141.601 17.7467 142.031 17.5933 142.438 17.4V14.77H140.628C140.455 14.77 140.318 14.7233 140.218 14.63C140.118 14.53 140.068 14.41 140.068 14.27V12.75H144.878V18.6C144.511 18.8667 144.128 19.1 143.728 19.3C143.335 19.4933 142.911 19.6533 142.458 19.78C142.011 19.9067 141.531 20 141.018 20.06C140.505 20.1267 139.951 20.16 139.358 20.16C138.305 20.16 137.335 19.9767 136.448 19.61C135.561 19.2433 134.795 18.7333 134.148 18.08C133.501 17.4267 132.995 16.6467 132.628 15.74C132.268 14.8333 132.088 13.8433 132.088 12.77C132.088 11.6833 132.265 10.6867 132.618 9.78C132.971 8.87333 133.471 8.09333 134.118 7.44C134.771 6.78667 135.561 6.28 136.488 5.92C137.415 5.56 138.455 5.38 139.608 5.38C140.788 5.38 141.808 5.55667 142.668 5.91C143.535 6.25667 144.268 6.71 144.868 7.27L144.088 8.49C143.935 8.73667 143.731 8.86 143.478 8.86C143.318 8.86 143.155 8.80667 142.988 8.7C142.775 8.57333 142.555 8.44667 142.328 8.32C142.108 8.19333 141.861 8.08333 141.588 7.99C141.321 7.89667 141.018 7.82 140.678 7.76C140.345 7.7 139.958 7.67 139.518 7.67C138.805 7.67 138.158 7.79 137.578 8.03C137.005 8.27 136.515 8.61333 136.108 9.06C135.701 9.50667 135.388 10.0433 135.168 10.67C134.948 11.2967 134.838 11.9967 134.838 12.77C134.838 13.6033 134.955 14.3467 135.188 15C135.421 15.6467 135.748 16.1933 136.168 16.64C136.588 17.0867 137.088 17.43 137.668 17.67C138.248 17.9033 138.881 18.02 139.568 18.02ZM158.621 18.02C159.228 18.02 159.754 17.9667 160.201 17.86C160.654 17.7467 161.084 17.5933 161.491 17.4V14.77H159.681C159.508 14.77 159.371 14.7233 159.271 14.63C159.171 14.53 159.121 14.41 159.121 14.27V12.75H163.931V18.6C163.564 18.8667 163.181 19.1 162.781 19.3C162.388 19.4933 161.964 19.6533 161.511 19.78C161.064 19.9067 160.584 20 160.071 20.06C159.558 20.1267 159.004 20.16 158.411 20.16C157.358 20.16 156.388 19.9767 155.501 19.61C154.614 19.2433 153.848 18.7333 153.201 18.08C152.554 17.4267 152.048 16.6467 151.681 15.74C151.321 14.8333 151.141 13.8433 151.141 12.77C151.141 11.6833 151.318 10.6867 151.671 9.78C152.024 8.87333 152.524 8.09333 153.171 7.44C153.824 6.78667 154.614 6.28 155.541 5.92C156.468 5.56 157.508 5.38 158.661 5.38C159.841 5.38 160.861 5.55667 161.721 5.91C162.588 6.25667 163.321 6.71 163.921 7.27L163.141 8.49C162.988 8.73667 162.784 8.86 162.531 8.86C162.371 8.86 162.208 8.80667 162.041 8.7C161.828 8.57333 161.608 8.44667 161.381 8.32C161.161 8.19333 160.914 8.08333 160.641 7.99C160.374 7.89667 160.071 7.82 159.731 7.76C159.398 7.7 159.011 7.67 158.571 7.67C157.858 7.67 157.211 7.79 156.631 8.03C156.058 8.27 155.568 8.61333 155.161 9.06C154.754 9.50667 154.441 10.0433 154.221 10.67C154.001 11.2967 153.891 11.9967 153.891 12.77C153.891 13.6033 154.008 14.3467 154.241 15C154.474 15.6467 154.801 16.1933 155.221 16.64C155.641 17.0867 156.141 17.43 156.721 17.67C157.301 17.9033 157.934 18.02 158.621 18.02ZM180.154 5.54V7.68H173.744V11.69H178.794V13.76H173.744V17.85H180.154V20H171.034V5.54H180.154ZM194.83 8.17C194.756 8.31667 194.67 8.42 194.57 8.48C194.476 8.54 194.363 8.57 194.23 8.57C194.096 8.57 193.946 8.52 193.78 8.42C193.613 8.31333 193.416 8.19667 193.19 8.07C192.963 7.94333 192.696 7.83 192.39 7.73C192.09 7.62333 191.733 7.57 191.32 7.57C190.946 7.57 190.62 7.61667 190.34 7.71C190.066 7.79667 189.833 7.92 189.64 8.08C189.453 8.24 189.313 8.43333 189.22 8.66C189.126 8.88 189.08 9.12333 189.08 9.39C189.08 9.73 189.173 10.0133 189.36 10.24C189.553 10.4667 189.806 10.66 190.12 10.82C190.433 10.98 190.79 11.1233 191.19 11.25C191.59 11.3767 191.996 11.5133 192.41 11.66C192.83 11.8 193.24 11.9667 193.64 12.16C194.04 12.3467 194.396 12.5867 194.71 12.88C195.023 13.1667 195.273 13.52 195.46 13.94C195.653 14.36 195.75 14.87 195.75 15.47C195.75 16.1233 195.636 16.7367 195.41 17.31C195.19 17.8767 194.863 18.3733 194.43 18.8C194.003 19.22 193.48 19.5533 192.86 19.8C192.24 20.04 191.53 20.16 190.73 20.16C190.27 20.16 189.816 20.1133 189.37 20.02C188.923 19.9333 188.493 19.8067 188.08 19.64C187.673 19.4733 187.29 19.2733 186.93 19.04C186.576 18.8067 186.26 18.5467 185.98 18.26L186.76 16.97C186.833 16.8767 186.92 16.8 187.02 16.74C187.126 16.6733 187.243 16.64 187.37 16.64C187.536 16.64 187.716 16.71 187.91 16.85C188.103 16.9833 188.33 17.1333 188.59 17.3C188.856 17.4667 189.166 17.62 189.52 17.76C189.88 17.8933 190.31 17.96 190.81 17.96C191.576 17.96 192.17 17.78 192.59 17.42C193.01 17.0533 193.22 16.53 193.22 15.85C193.22 15.47 193.123 15.16 192.93 14.92C192.743 14.68 192.493 14.48 192.18 14.32C191.866 14.1533 191.51 14.0133 191.11 13.9C190.71 13.7867 190.303 13.6633 189.89 13.53C189.476 13.3967 189.07 13.2367 188.67 13.05C188.27 12.8633 187.913 12.62 187.6 12.32C187.286 12.02 187.033 11.6467 186.84 11.2C186.653 10.7467 186.56 10.19 186.56 9.53C186.56 9.00333 186.663 8.49 186.87 7.99C187.083 7.49 187.39 7.04667 187.79 6.66C188.196 6.27333 188.693 5.96333 189.28 5.73C189.866 5.49667 190.536 5.38 191.29 5.38C192.143 5.38 192.93 5.51333 193.65 5.78C194.37 6.04667 194.983 6.42 195.49 6.9L194.83 8.17ZM211.522 5.54V7.68H205.112V11.69H210.162V13.76H205.112V17.85H211.522V20H202.402V5.54H211.522Z" fill="white"/>
</svg>
