<svg width="54" height="48" viewBox="0 0 54 48" fill="none" xmlns="http://www.w3.org/2000/svg">
<path d="M53.617 2.12153C53.1574 0.757688 51.8553 0 50.6297 0C47.2595 0 44.502 5.07651 43.6594 8.10726C42.9701 10.5319 42.5871 12.8807 42.5871 15.3811C42.5871 18.4118 42.5871 21.4426 42.5871 24.4733C42.5871 26.1402 42.1275 29.4741 40.6722 31.0652C40.519 31.2925 40.2892 31.4441 40.0594 31.5956C40.0594 28.8679 39.5232 26.5191 38.5275 25.0795C37.6083 23.7156 36.4594 23.5641 35.9232 23.6399C34.5444 23.7914 33.9317 24.4733 33.5487 25.0795C32.5529 26.7464 32.9359 31.2167 37.5317 34.3233C37.3785 37.0509 32.8593 45.8401 27.8805 44.3247C23.7443 43.0367 28.4167 23.7156 30.1784 18.1087C31.2508 14.5476 33.2423 7.80419 33.3955 5.15228C33.4721 3.71267 33.3189 2.57614 32.5529 1.74268C32.2465 1.36384 31.6338 1.06076 30.7912 1.06076C27.2678 0.909226 22.7486 7.50111 20.757 9.84994C20.3741 10.3046 20.0677 10.6834 19.6081 11.2138C18.7655 12.123 18.5357 12.123 18.6123 11.2138C18.6889 9.92571 18.7655 8.78918 18.6123 7.57688C18.5357 6.21304 17.9996 5.15228 16.5442 5.15228C15.4719 5.15228 14.3229 5.90997 13.6336 6.51612C12.5612 7.34957 11.7186 8.2588 10.6463 9.24379C9.57393 10.3046 8.73137 11.2138 7.65902 12.2745C7.19944 12.7292 6.96965 12.5776 6.96965 12.123C6.96965 11.8199 6.96965 11.4411 6.96965 11.2138C7.04624 8.86495 6.96965 7.12227 6.12708 5.07651C5.97389 4.6219 5.59091 4.01575 5.20792 3.6369C4.74834 3.25806 4.21217 3.18229 3.75259 3.6369C3.4462 3.93998 3.75259 4.54613 3.90578 4.92497C4.74834 7.12227 4.97813 9.4711 4.59515 11.8199C4.05897 14.9265 3.13981 17.9572 1.99086 20.9122C1.30149 22.6549 0.612123 24.3976 0.0759464 26.3675C-0.077247 26.8979 -0.077247 28.186 0.841913 28.2618C1.68448 28.3375 2.37385 27.5041 2.68023 26.6706C3.4462 24.7764 4.13557 22.8822 4.82494 20.988C5.51431 19.0937 6.20368 17.048 7.42923 15.5326C9.11435 13.4111 10.8761 11.3653 12.8676 9.4711C13.4804 8.86495 14.2463 8.33457 15.0123 7.87995C15.5485 7.57688 16.3144 7.80419 16.3144 8.56187C16.3144 10.3803 15.9315 12.2745 15.4719 14.093C14.9357 16.063 14.3229 17.8814 13.557 19.8514C12.9442 21.4426 12.3314 22.8064 11.5654 24.1702C10.8761 25.3825 10.3399 26.6706 9.80372 28.0345C9.57393 28.6406 9.95692 29.4741 10.7995 29.4741C11.4123 29.4741 11.9484 29.2468 12.2548 28.6406C13.6336 25.9887 14.8591 23.1853 16.3144 20.5333C18.9187 15.8357 21.906 11.4411 25.2762 7.27381C26.1954 6.13727 28.6465 3.25806 29.6423 3.33383C30.0252 3.33383 30.4082 3.56113 30.5614 3.86421C30.9444 4.39459 30.9444 5.45535 30.7912 6.0615C30.3316 9.4711 29.2593 12.8807 28.1103 16.4418C25.5826 24.1702 18.9187 45.8401 26.8848 47.1282C34.2381 48.4163 38.6041 39.1725 39.9062 34.3233C40.9786 34.1717 41.8211 33.6413 42.5871 32.9594C43.4297 32.126 44.119 30.9894 44.5786 29.7771C45.268 28.0345 45.4978 26.1402 45.4978 24.0945C45.4978 20.988 45.1148 17.6541 45.1148 14.6991C45.1148 11.2896 45.4978 8.10726 46.8765 5.00074C47.2595 4.24305 47.9489 3.03075 48.7914 2.27306C49.251 1.81845 49.7872 1.51538 50.4766 1.51538C51.7787 1.51538 52.4681 2.95498 53.0042 4.09152C53.1574 4.39459 53.3872 4.47036 53.6936 4.31882C53.9234 4.24305 54 4.01575 54 3.71267C53.9234 3.18229 53.8468 2.65191 53.617 2.12153ZM35.6168 26.216C37.0721 25.5341 38.0679 29.7014 37.6849 31.5956C35.77 30.5348 34.4678 26.7464 35.6168 26.216Z" fill="black"/>
</svg>
